<svg width="1790" height="1239" viewBox="0 0 1790 1239" fill="none" xmlns="http://www.w3.org/2000/svg">
<path d="M1593.45 168.485H1641.18V131.144H1650.44V130.282H1649.42V129.421H1650.44V126.979H1649.42V126.117H1650.44V123.532H1649.42V122.67H1650.44V120.085H1649.42V119.224H1650.44V116.782H1649.42V115.92H1650.44V113.335H1649.42V112.474H1650.44V110.032H1649.42V109.027H1650.44V106.585H1649.42V105.723H1650.44V104H1654.06V105.723H1654.84V106.585H1654.06V109.027H1654.84V110.032H1654.06V112.474H1654.84V113.335H1654.06V115.92H1654.84V116.782H1654.06V119.224H1654.84V120.085H1654.06V122.67H1654.84V123.532H1654.06V126.117H1654.84V126.979H1654.06V129.421H1654.84V130.282H1654.06V131.144H1682.4V130.282H1681.45V129.421H1682.4V126.979H1681.45V126.117H1682.4V123.532H1681.45V122.67H1682.4V120.085H1681.45V119.224H1682.4V116.782H1681.45V115.92H1682.4V113.335H1681.45V112.474H1682.4V110.032H1681.45V109.027H1682.4V106.585H1681.45V105.723H1682.4V104H1686.09V105.723H1686.87V106.585H1686.09V109.027H1686.87V110.032H1686.09V112.474H1686.87V113.335H1686.09V115.92H1686.87V116.782H1686.09V119.224H1686.87V120.085H1686.09V122.67H1686.87V123.532H1686.09V126.117H1686.87V126.979H1686.09V129.421H1686.87V130.282H1686.09V131.144H1713.72V130.857H1712.78V129.995H1713.72V127.41H1712.78V126.548H1713.72V124.107H1712.78V123.245H1713.72V120.66H1712.78V119.798H1713.72V117.213H1712.78V116.351H1713.72V113.91H1712.78V113.048H1713.72V110.463H1712.78V109.601H1713.72V107.016H1712.78V106.154H1713.72V104.574H1717.41V106.154H1718.19V107.016H1717.41V109.601H1718.19V110.463H1717.41V113.048H1718.19V113.91H1717.41V116.351H1718.19V117.213H1717.41V119.798H1718.19V120.66H1717.41V123.245H1718.19V124.107H1717.41V126.548H1718.19V127.41H1717.41V129.995H1718.19V130.857H1717.41V131.144H1727.3V168.485H1775.03H1789.24V1020H1775.03H1593.45H1579.24V168.485H1593.45Z" fill="#FFEDDC"/>
<path d="M1518.84 1069.06V999.416H1517.03V995.573H1518.84V987.26H1517.03V983.417H1525.73V943.733V911.265V845.937V826.173H1524.64V822.33H1527.69V801.861H1526.52V798.018H1529.49V619.521H1527.61V615.678H1528.71V612.62H1529.42V607.365H1527.53V603.522H1529.42V591.053V589.092H1528.24V586.033H1527.61V582.191V579.132H1531.14V568.78C1531.14 566.741 1531.61 564.859 1532.39 563.133C1532.63 562.506 1533.02 562.114 1533.41 561.486C1534.04 560.388 1534.74 559.369 1535.61 558.428C1536.15 557.879 1536.78 557.487 1537.33 557.016C1538.27 556.31 1539.21 555.683 1540.31 555.134C1541.09 554.742 1541.8 554.506 1542.58 554.271C1543.21 554.114 1543.68 553.722 1544.3 553.644V549.801H1736.22V553.644C1736.85 553.722 1737.39 554.114 1738.02 554.271C1738.88 554.506 1739.74 554.742 1740.61 555.134C1741.63 555.604 1742.49 556.232 1743.35 556.859C1744.05 557.33 1744.68 557.8 1745.31 558.428C1746.17 559.29 1746.8 560.31 1747.42 561.408C1747.74 561.957 1748.21 562.506 1748.52 563.133C1749.31 564.937 1749.78 566.819 1749.78 568.858V579.21H1753.3V582.269V586.112H1752.67V589.171H1751.5V603.522H1753.38V607.365H1751.5V612.62H1752.2V615.678H1753.3V619.521H1751.42V798.018H1754.4V801.861H1753.22V822.33H1756.36V826.173H1755.26V845.937V911.265V943.733V983.417H1763.96V987.26H1762.16V995.573H1763.96V999.416H1762.16V1069.06H1764.35V1099.8H1516.8V1069.06H1518.99H1518.84Z" fill="#FFDCBC"/>
<path d="M1418.66 831.265H1426.5V635.279H1500.94V589.871H1525.16V587.518H1533.23V571.598H1535.74V587.518H1543.81V589.871H1568.02V635.279H1624.68V967.256H1418.74L1426.5 966.55H1418.66V831.265Z" fill="#FFBF85"/>
<path d="M1704.22 955.136V942.51H1786.03V1238.41H1742.93V1238.8H1648.66V955.136H1704.22Z" fill="#8B8B8B"/>
<path d="M1252.22 513.483H1299.86V493.092H1309.11V492.621H1308.09V492.151H1309.11V490.818H1308.09V490.347H1309.11V488.935H1308.09V488.465H1309.11V487.053H1308.09V486.583H1309.11V485.249H1308.09V484.779H1309.11V483.367H1308.09V482.897H1309.11V481.563H1308.09V481.014H1309.11V479.681H1308.09V479.211H1309.11V478.27H1312.71V479.211H1313.5V479.681H1312.71V481.014H1313.5V481.563H1312.71V482.897H1313.5V483.367H1312.71V484.779H1313.5V485.249H1312.71V486.583H1313.5V487.053H1312.71V488.465H1313.5V488.935H1312.71V490.347H1313.5V490.818H1312.71V492.151H1313.5V492.621H1312.71V493.092H1341V492.621H1340.06V492.151H1341V490.818H1340.06V490.347H1341V488.935H1340.06V488.465H1341V487.053H1340.06V486.583H1341V485.249H1340.06V484.779H1341V483.367H1340.06V482.897H1341V481.563H1340.06V481.014H1341V479.681H1340.06V479.211H1341V478.27H1344.68V479.211H1345.47V479.681H1344.68V481.014H1345.47V481.563H1344.68V482.897H1345.47V483.367H1344.68V484.779H1345.47V485.249H1344.68V486.583H1345.47V487.053H1344.68V488.465H1345.47V488.935H1344.68V490.347H1345.47V490.818H1344.68V492.151H1345.47V492.621H1344.68V493.092H1372.27V492.935H1371.33V492.465H1372.27V491.053H1371.33V490.582H1372.27V489.249H1371.33V488.779H1372.27V487.367H1371.33V486.896H1372.27V485.485H1371.33V485.014H1372.27V483.681H1371.33V483.21H1372.27V481.799H1371.33V481.328H1372.27V479.916H1371.33V479.446H1372.27V478.583H1375.95V479.446H1376.74V479.916H1375.95V481.328H1376.74V481.799H1375.95V483.21H1376.74V483.681H1375.95V485.014H1376.74V485.485H1375.95V486.896H1376.74V487.367H1375.95V488.779H1376.74V489.249H1375.95V490.582H1376.74V491.053H1375.95V492.465H1376.74V492.935H1375.95V493.092H1385.83V513.483H1433.47H1447.66V978.469H1433.47H1252.22H1238.03V513.483H1252.22Z" fill="#F9A457"/>
<path d="M353.492 258.418V255.779H352.637V254.123H350.193V255.779H345.795V254.123H343.352V255.779H329.365V254.123H326.921V255.779H314.949V254.123H312.506V255.779H308.108V254.123H305.665V255.779H291.677V254.123H289.234V255.779H277.262V254.123H274.819V255.779H270.421V254.123H267.978V255.779H250.57V253.203H248.127V255.779H239.575C239.27 254.123 238.964 252.466 238.659 250.81C238.109 247.681 237.498 244.491 236.949 241.3C236.277 237.742 235.544 234.122 234.872 230.564C234.811 230.134 234.689 229.766 234.628 229.337C234.322 227.68 233.956 225.962 233.65 224.306C233.101 221.3 232.49 218.355 231.94 215.349C230.535 208.293 229.13 201.176 227.664 194.059C227.664 193.937 227.664 193.814 227.603 193.691C225.404 182.771 223.083 171.85 220.762 160.929C220.457 159.396 220.09 157.862 219.785 156.328C219.785 156.205 219.785 156.021 219.724 155.898C219.357 154.181 218.991 152.524 218.624 150.806C218.258 149.088 217.891 147.371 217.525 145.591C216.792 142.278 216.059 138.965 215.326 135.591C214.165 130.315 212.883 125.038 211.722 119.762C210.928 116.449 210.195 113.136 209.401 109.762C208.668 106.571 207.935 103.32 207.141 100.13C205.37 92.7673 203.598 85.3437 201.766 77.9201C201.766 77.9201 201.766 77.7974 201.766 77.736C201.766 77.552 201.705 77.4293 201.644 77.2452C201.216 75.4047 200.789 73.6255 200.3 71.7849C200.3 71.7849 200.3 71.7236 200.3 71.6622C199.933 70.1898 199.567 68.656 199.201 67.1835C199.201 67.1835 199.201 67.1835 199.201 67.1222C198.834 65.6497 198.468 64.1773 198.04 62.7048C197.673 61.2324 197.307 59.8213 196.941 58.3488C196.941 58.3488 196.941 58.3488 196.941 58.2875C196.696 57.3058 196.452 56.3856 196.208 55.4039C194.558 48.962 192.97 42.52 191.26 36.0781C190.771 34.1761 190.283 32.3356 189.733 30.4337C189.733 30.311 189.672 30.1269 189.611 30.0042C189.611 29.9429 189.611 29.8202 189.55 29.7588C189.428 29.3907 189.305 28.9612 189.244 28.5931C189 27.6115 188.695 26.5685 188.45 25.5869C188.45 25.5255 188.45 25.4642 188.45 25.4028C187.901 23.3168 187.29 21.1695 186.74 19.0836C185.946 16.1387 185.152 13.1324 184.358 10.1875C183.442 6.81317 182.586 3.43881 181.609 0.0644531L126.941 13.6846C126.941 13.6846 126.941 13.8686 126.941 13.9913C126.941 13.9913 90.3538 601.989 92.6749 698.311C94.9349 794.634 92.5527 953.045 92.5527 953.045H99.6992C99.6992 953.658 99.6992 954.21 99.6992 954.701C99.6992 954.701 99.6992 954.824 99.6992 954.885C99.6992 955.376 99.6992 955.744 99.6992 956.051V956.173C99.6992 956.848 99.6992 957.216 99.8214 957.216C99.8214 957.216 99.8214 957.155 99.8825 956.971C99.8825 956.971 99.8825 956.542 99.9436 956.173C99.9436 955.867 100.005 955.437 100.066 954.946C100.066 954.946 100.066 954.885 100.066 954.824C100.066 954.394 100.127 953.842 100.188 953.229C100.188 953.167 100.188 953.106 100.188 953.045V991.819H109.167V991.635H244.462C244.462 991.635 244.462 991.758 244.462 991.819H297.786C297.786 991.819 297.786 991.758 297.786 991.696C297.786 991.696 297.786 991.635 297.786 991.451C297.786 991.328 297.786 991.205 297.786 990.96C297.786 990.899 297.786 990.837 297.786 990.715C297.908 986.849 298.519 969.794 298.763 941.878C298.763 941.694 298.763 941.572 298.763 941.449C298.763 941.326 298.763 941.265 298.763 941.142C298.763 938.381 298.763 935.498 298.824 932.553C298.824 932.369 298.824 932.124 298.824 931.939C298.824 930.16 298.824 928.258 298.824 926.418C298.824 926.418 298.824 926.295 298.824 926.234C298.824 925.068 298.824 923.902 298.824 922.675C298.824 922.369 298.824 922.123 298.824 921.878C298.824 915.006 298.824 907.705 298.824 899.914C298.824 899.852 298.824 899.73 298.824 899.668C298.824 898.196 298.824 896.723 298.824 895.251C298.824 895.251 298.824 895.19 298.824 895.128C298.824 895.067 298.824 895.006 298.824 894.944C298.824 886.723 298.702 878.134 298.519 868.992C298.519 868.87 298.519 868.747 298.519 868.624C298.519 868.563 298.519 868.502 298.519 868.379C298.519 865.127 298.396 861.814 298.335 858.501C298.335 858.256 298.335 858.072 298.335 857.826C298.335 857.704 298.335 857.581 298.335 857.458C298.274 852.918 298.152 848.317 298.03 843.593C298.03 843.163 298.03 842.672 298.03 842.243C297.908 837.212 297.786 832.058 297.663 826.844C297.663 826.844 297.663 826.782 297.663 826.721C297.602 823.531 297.48 820.218 297.419 816.966C297.419 816.905 297.419 816.782 297.419 816.72C297.419 816.475 297.419 816.291 297.419 816.046C297.419 815.923 297.419 815.862 297.419 815.739C297.419 814.328 297.358 812.978 297.297 811.628C297.297 811.628 297.297 811.567 297.297 811.506C297.175 808.315 297.114 805.125 296.992 801.873C296.992 801.567 296.992 801.198 296.992 800.892C296.992 800.892 296.992 800.769 296.992 800.708C296.808 795.554 296.625 790.339 296.442 785.063C296.32 781.566 296.197 778.007 296.014 774.449C296.014 774.449 296.014 774.388 296.014 774.326C296.014 774.326 296.014 774.204 296.014 774.142C295.831 769.295 295.587 764.387 295.403 759.418C295.403 759.356 295.403 759.295 295.403 759.172C295.403 759.172 295.403 759.172 295.403 759.111C295.159 753.896 294.915 748.62 294.67 743.282C294.487 739.724 294.304 736.165 294.121 732.484V732.362C293.693 724.018 293.205 715.428 292.716 706.778C292.716 706.778 292.716 706.655 292.716 706.594C292.594 704.937 292.533 703.281 292.41 701.563V701.44V701.317C292.41 701.256 292.41 701.133 292.41 701.072C292.227 697.759 291.983 694.385 291.8 691.01C291.8 690.888 291.8 690.765 291.8 690.642C291.677 688.924 291.616 687.268 291.494 685.55C291.494 685.427 291.494 685.243 291.494 685.121C291.494 684.384 291.372 683.648 291.372 682.912C290.883 675.427 290.395 667.881 289.845 660.273C289.845 660.273 289.845 660.028 289.845 659.721C289.845 659.475 289.845 658.985 289.845 658.555C289.845 657.328 289.845 655.488 289.845 653.033C289.845 652.972 289.845 652.911 289.845 652.849C289.845 651.684 289.845 650.395 289.845 648.923C289.845 647.634 289.845 646.223 289.845 644.69C289.845 644.383 289.845 644.076 289.845 643.708C289.845 640.702 289.906 637.389 289.967 633.708C289.967 633.524 289.967 633.401 289.967 633.217C289.967 632.051 289.967 630.824 289.967 629.597C289.967 629.045 289.967 628.554 289.967 628.002C289.967 626.652 289.967 625.18 289.967 623.769C289.967 622.173 289.967 620.517 289.967 618.86C289.967 618.554 289.967 618.186 289.967 617.879C289.967 614.688 290.028 611.314 290.089 607.878C290.089 607.449 290.089 606.958 290.089 606.529C290.089 606.283 290.089 606.038 290.089 605.792C290.089 605.24 290.089 604.688 290.089 604.136C290.089 603.645 290.089 603.154 290.089 602.663C290.089 600.516 290.089 598.246 290.15 596.037C290.15 595.117 290.15 594.258 290.15 593.338V593.215C290.15 591.252 290.15 589.227 290.212 587.203C290.212 586.651 290.212 586.16 290.212 585.608C290.212 585.485 290.212 585.424 290.212 585.301C290.212 582.785 290.212 580.27 290.273 577.693C290.273 576.896 290.273 576.037 290.273 575.178C290.273 571.926 290.334 568.613 290.395 565.239C290.395 563.582 290.395 561.864 290.456 560.208C290.456 560.085 290.456 559.962 290.456 559.84C290.456 556.895 290.517 553.889 290.578 550.882C290.578 550.576 290.578 550.33 290.578 550.023C290.578 549.962 290.578 549.901 290.578 549.839C290.639 544.072 290.7 538.244 290.822 532.354C290.822 529.409 290.883 526.464 290.944 523.519C290.944 523.213 290.944 522.906 290.944 522.599C290.944 522.108 290.944 521.556 290.944 521.065C290.944 520.39 290.944 519.777 290.944 519.102C290.944 515.973 291.006 512.783 291.067 509.654C291.067 507.813 291.067 505.973 291.128 504.132C291.128 503.335 291.128 502.476 291.128 501.678C291.128 501.31 291.128 500.881 291.128 500.512C291.189 495.666 291.25 490.757 291.311 485.911C291.311 482.843 291.372 479.714 291.433 476.647C291.433 475.665 291.433 474.745 291.433 473.763C291.433 473.456 291.433 473.211 291.433 472.904C291.555 463.824 291.739 454.805 291.861 445.909C291.861 444.069 291.922 442.228 291.983 440.388C291.983 439.958 291.983 439.467 291.983 439.038C291.983 437.443 291.983 435.847 292.044 434.314C292.044 431.185 292.166 428.117 292.227 425.05C292.349 419.589 292.41 414.19 292.533 408.914C292.594 405.294 292.655 401.674 292.716 398.116C292.716 396.398 292.777 394.619 292.838 392.901C292.899 389.527 292.96 386.152 293.021 382.901C293.021 380.14 293.143 377.44 293.204 374.741C293.204 374.741 293.204 374.741 293.204 374.68C293.266 371.98 293.327 369.342 293.388 366.827C293.449 363.207 293.571 359.71 293.632 356.335C293.632 354.986 293.693 353.636 293.754 352.286C293.754 352.102 293.754 351.857 293.754 351.673C293.876 348.176 293.937 344.801 294.06 341.611C294.06 341.55 294.06 341.427 294.06 341.304C294.243 335.353 294.426 329.954 294.609 325.291C294.793 321.181 294.915 317.561 295.098 314.555C295.159 312.898 295.281 311.364 295.342 310.076C295.403 309.156 295.465 308.297 295.526 307.561C295.526 307.499 295.526 307.376 295.526 307.315C295.526 307.192 295.526 307.008 295.526 306.886C295.526 306.456 295.587 306.027 295.648 305.659C295.648 305.475 295.648 305.229 295.709 305.045C295.709 304.861 295.709 304.738 295.77 304.616C295.77 304.309 295.892 304.125 295.953 303.941C295.953 303.757 296.075 303.634 296.136 303.634C299.985 301.241 329.12 282.222 329.12 282.222V282.099V278.112H343.291C345.857 278.112 348.239 277.007 349.949 275.167C350.804 274.246 351.476 273.142 351.965 271.976C352.453 270.749 352.698 269.461 352.698 268.05V263.755H351.842V258.786H352.637L353.492 258.418ZM350.193 258.418V263.387H345.795V258.418H350.193ZM343.352 258.418V263.387H329.365V258.418H343.352ZM326.921 258.418V263.387H314.949V258.418H326.921ZM312.506 258.418V263.387H308.108V258.418H312.506ZM305.665 258.418V263.387H291.677V258.418H305.665ZM289.234 258.418V263.387H277.262V258.418H289.234ZM274.819 258.418V263.387H270.421V258.418H274.819ZM267.978 258.418V263.387H250.57V258.418H267.978ZM248.127 263.387H240.98C240.675 261.731 240.369 260.074 240.064 258.418H248.127V263.387Z" fill="#FFDCBC"/>
<path d="M6.92497 687.176V452.266H33.9682V398.291H79.0999V394.286H89.1889V311.021H92.2932V394.286H102.322V398.291H147.454V452.266H174.497V768.229H186.258V793.095H208.585V817.184H233.479V844.441H257V1029.02H0V952.81V871.697V844.441V768.229V687.176H6.92497Z" fill="#F9A457"/>
<path d="M307.154 527.849V521.176H256.501V527.849H249.553V1136.18H457.553V527.849H307.154Z" fill="#FFBF85"/>
<path d="M300.698 678.873C312.838 678.54 351.526 694.623 351.459 694.025C350.058 652.555 302.366 662.258 301.632 660.729C300.965 659.201 341.387 650.362 340.787 649.764C302.633 614.607 287.291 656.676 287.091 652.555C285.49 628.099 257.275 624.51 257.275 624.51C257.275 624.51 278.82 654.815 271.749 650.296C231.927 625.174 212.183 666.511 216.252 664.983C231.794 659.201 270.815 668.638 268.347 669.037C232.595 674.42 227.725 716.089 227.725 716.089C259.209 710.905 276.352 691.566 283.356 681.398C281.888 713.431 279.087 769.123 275.551 814.447L291.293 815.178L289.225 699.342C293.895 724.928 316.107 743.271 317.107 741.144C337.252 698.278 299.631 679.005 300.632 678.939L300.698 678.873Z" fill="#F5851E"/>
<path d="M1463.79 625.96C1475.93 625.628 1514.62 641.711 1514.55 641.113C1513.15 599.643 1465.46 609.346 1464.72 607.817C1464.06 606.289 1504.48 597.45 1503.88 596.852C1465.73 561.695 1450.38 603.763 1450.18 599.643C1448.58 575.186 1420.37 571.598 1420.37 571.598C1420.37 571.598 1441.91 601.903 1434.84 597.383C1395.02 572.262 1375.28 613.599 1379.35 612.071C1394.89 606.289 1433.91 615.726 1431.44 616.125C1395.69 621.508 1390.82 663.177 1390.82 663.177C1422.3 657.993 1439.44 638.654 1446.45 628.486C1444.98 660.519 1442.18 716.211 1438.64 761.535L1454.39 762.266L1452.32 646.43C1456.99 672.016 1479.2 690.358 1480.2 688.232C1500.34 645.366 1462.72 626.093 1463.72 626.027L1463.79 625.96Z" fill="#F5851E"/>
<path d="M1616.39 956.753C1628.53 956.421 1667.21 972.504 1667.15 971.906C1665.75 930.436 1618.05 940.139 1617.32 938.61C1616.65 937.082 1657.08 928.243 1656.47 927.645C1618.32 892.488 1602.98 934.556 1602.78 930.436C1601.18 905.979 1572.96 902.391 1572.96 902.391C1572.96 902.391 1594.51 932.696 1587.44 928.176C1547.62 903.055 1527.87 944.392 1531.94 942.864C1547.48 937.082 1586.5 946.519 1584.04 946.918C1548.28 952.301 1543.41 993.97 1543.41 993.97C1574.9 988.786 1592.04 969.447 1599.04 959.279C1597.58 991.312 1594.77 1047 1591.24 1092.33L1606.98 1093.06L1604.91 977.223C1609.58 1002.81 1631.79 1021.15 1632.8 1019.02C1652.94 976.159 1615.32 956.886 1616.32 956.82L1616.39 956.753Z" fill="#3A3A3A"/>
<path d="M244.72 737.329C237.383 740.652 262.063 714.533 262.063 714.533C262.063 714.533 234.581 714.201 229.779 737.462C228.978 741.383 219.907 699.115 178.751 727.626C178.084 728.091 215.571 741.981 214.704 743.31C213.837 744.639 169.479 729.021 162.542 768.564C162.475 769.096 201.63 758.861 213.17 760.788C214.17 760.988 175.549 774.412 189.09 818.075C189.824 820.335 215.438 804.518 222.241 779.064C222.641 777.669 222.975 776.273 223.308 775.01C221.774 790.229 220.107 809.901 219.24 829.506L231.446 832.231L231.179 768.63C237.516 779.862 251.324 797.806 278.072 806.113C278.072 806.113 279.005 765.573 245.521 755.605C243.186 754.94 281.807 751.019 295.948 758.662C299.617 760.655 286.276 718.521 244.787 737.262L244.72 737.329Z" fill="#F5851E"/>
<path d="M572.383 711.351L561.252 705.872H548.801V675.551H554.083L554.744 674.512L555.215 673.662L557.951 669.034H561.818V667.995H559.649L548.518 662.611H542.481V632.478H547.48L548.141 631.439L548.612 630.589L550.216 627.85L550.499 627.472L551.348 626.055H555.215V625.016H553.046L541.915 619.538H538.614V615.004V589.311H541.915L542.575 588.272L543.047 587.422L544.085 585.722L544.745 584.588L544.934 584.21L545.783 582.793H549.65V581.754H547.48L536.35 576.276H535.312V570.608V546.238H539.557L539.934 545.388L540.217 544.727L540.783 543.404L541.16 542.554L541.443 541.893L541.821 541.043H544.179V540.193H542.858L542.198 539.72H542.481V538.681H540.595L536.067 535.753H534.463L529.275 533.203H528.426V511.194H531.633L532.011 510.344L532.294 509.683L533.992 505.999H536.35V505.149H535.029L528.238 500.804H524.559V476.433H527.672L528.049 475.583L528.332 474.922L529.369 472.75L529.558 472.372L530.124 471.238H532.482V470.388H531.162L524.276 465.949H522.2V462.265V441.484H524.181L524.559 440.634L524.842 439.973L525.502 438.65L525.879 437.706V437.422H525.974L526.54 436.289H528.898V435.439H527.577L520.691 430.999H515.786V406.629H519.748L520.125 405.779L520.408 405.117L520.974 403.89V403.795L521.352 402.945L521.54 402.567L521.729 402.189L522.106 401.339H524.464V400.489H523.144L516.258 396.049H514.088C505.787 396.049 500.128 375.93 497.203 362.328C497.203 362.328 497.864 362.045 497.864 361.667V361.194C497.864 361.194 497.581 360.533 497.203 360.533H496.732C496.732 360.533 496.732 360.344 496.732 360.155H497.203C497.203 360.155 497.864 359.872 497.864 359.494V359.022C497.864 359.022 497.581 358.361 497.203 358.361H496.355C496.355 358.361 496.355 358.172 496.355 357.983H497.298C497.298 357.983 497.958 357.699 497.958 357.322V356.849C497.958 356.849 497.675 356.188 497.298 356.188H496.072V350.521C496.072 350.521 496.355 350.048 496.355 349.671V345.609C496.355 344.948 495.883 344.381 495.223 344.381H494.562C493.902 344.381 493.43 344.948 493.43 345.609V349.671C493.43 349.671 493.525 350.237 493.713 350.521V356.377H492.487C492.11 356.377 491.827 356.66 491.827 357.038V357.511C491.827 357.511 492.11 358.172 492.487 358.172H493.336C493.336 358.172 493.336 358.361 493.336 358.55H492.581C492.581 358.55 491.921 358.833 491.921 359.211V359.683C491.921 359.683 492.204 360.344 492.581 360.344H492.959C492.959 360.344 492.959 360.533 492.959 360.722H492.676C492.676 360.722 492.015 361.006 492.015 361.383V361.856C492.015 361.856 492.298 362.422 492.676 362.517C489.469 376.119 483.526 396.238 475.885 396.238H473.055L466.735 400.678H465.509V401.528H467.867L468.339 402.378L468.716 403.039L469.188 403.89L469.565 404.551L469.943 405.306L470.32 405.968L470.792 406.818H474.753V431.188H468.528L462.302 435.627H461.076V436.478H463.434L463.906 437.328L464.283 437.989L464.755 438.839L465.132 439.5L465.698 440.445L465.886 440.823L466.358 441.673H468.339V466.137H465.698L459.378 470.577H458.152V471.427H460.51L461.076 472.372L461.359 472.938L461.83 473.789L462.208 474.45L462.774 475.394L463.057 475.867L463.528 476.717H466.547V501.087H460.887L454.661 505.432H453.435V506.282H455.793L456.359 507.321L456.642 507.794L457.114 508.644L457.491 509.305L458.057 510.249L458.246 510.627L458.718 511.477H461.925V533.486H458.435L448.247 538.965H446.266V540.004H448.719L448.058 540.476H446.832V541.326H449.19L449.662 542.176L450.039 542.838L450.511 543.688L450.888 544.349L451.266 545.01L451.643 545.671L452.115 546.521H455.699V576.559H451.171L440.984 582.038H439.003V583.077H442.87L443.625 584.116L444.285 584.966L445.134 586.005L445.7 586.855L446.643 588.083L447.021 588.555L447.775 589.594H450.983V619.821H446.643L436.456 625.3H434.475V626.339H438.343L439.192 627.472L439.758 628.228L440.512 629.267L441.078 630.117L441.927 631.25L442.304 631.817L443.059 632.856H447.964V662.988H438.814L428.627 668.372H426.646V669.412H430.513L431.457 670.639L431.928 671.301L432.777 672.434L433.343 673.19L434.286 674.418L434.664 674.89L435.418 675.929H440.606V706.25H428.721L418.534 711.729H416.553V712.768H420.42L421.175 713.807L421.741 714.657L422.495 715.696L423.061 716.546L423.722 717.396L424.288 718.246L425.042 719.285H430.891V840.853H559.932V719.285H566.818L567.478 718.246L567.95 717.396L568.893 715.79V715.696L569.459 714.657L569.931 713.807L570.591 712.768H574.458V711.729H572.289L572.383 711.351Z" fill="#F9A457"/>
<path d="M1294.47 564.496V558.117H1296.01V551.518H1297.55V547.338H1296.01V544.918H1292.19V539.712H1116.78V532.013H1121.25V528.714L1096.44 522.994H1002.08V495.204H1006.63V488.605H1008.18V482.885H1009.06V476.286H1006.78C1003.77 469.54 998.631 465.067 992.831 465.067C987.03 465.067 981.89 469.54 978.88 476.286H972.051C972.051 476.286 971.39 475.626 971.023 475.333C970.656 474.966 970.362 474.6 969.921 474.306C969.407 473.866 968.82 473.5 968.233 473.133C967.792 472.913 967.425 472.62 966.984 472.4C966.324 472.033 965.516 471.813 964.782 471.593C964.414 471.447 964.047 471.3 963.607 471.153C962.432 470.86 961.184 470.713 959.935 470.713C958.687 470.713 957.439 470.86 956.264 471.153C955.823 471.227 955.456 471.447 955.089 471.593C954.355 471.813 953.621 472.107 952.886 472.4C952.446 472.62 952.079 472.913 951.638 473.133C951.051 473.5 950.463 473.866 949.949 474.306C949.582 474.6 949.215 474.966 948.848 475.333C948.481 475.699 948.114 475.993 947.82 476.286H941.505C941.505 476.286 940.844 475.626 940.477 475.333C940.11 474.966 939.816 474.6 939.376 474.306C938.862 473.866 938.274 473.5 937.687 473.133C937.246 472.913 936.879 472.62 936.439 472.4C935.778 472.033 934.97 471.813 934.236 471.593C933.869 471.447 933.502 471.3 933.061 471.153C931.886 470.86 930.638 470.713 929.39 470.713C928.142 470.713 926.893 470.86 925.718 471.153C925.278 471.227 924.911 471.447 924.544 471.593C923.809 471.813 923.075 472.033 922.341 472.4C921.9 472.62 921.533 472.913 921.093 473.133C920.505 473.5 919.918 473.866 919.404 474.306C919.037 474.6 918.669 474.966 918.302 475.333C917.935 475.699 917.568 475.993 917.274 476.286H910.96C910.519 475.699 909.932 475.186 909.418 474.673C909.344 474.6 909.271 474.526 909.197 474.453C908.39 473.793 907.509 473.206 906.554 472.62C906.26 472.473 905.967 472.326 905.673 472.18C904.939 471.813 904.131 471.52 903.323 471.3C903.03 471.227 902.736 471.08 902.369 471.007C902.148 471.007 902.002 470.86 901.781 470.86V397.021H874.099V411.613H899.725V470.787C899.725 470.787 899.211 470.787 898.918 470.787C897.669 470.787 896.421 470.933 895.246 471.227C894.806 471.3 894.439 471.52 894.071 471.667C893.337 471.887 892.603 472.107 891.869 472.473C891.428 472.693 891.061 472.986 890.62 473.206C890.033 473.573 889.446 473.94 888.932 474.38C888.564 474.673 888.197 475.113 887.83 475.406C887.536 475.773 887.096 475.993 886.802 476.359H880.487C880.487 476.359 879.827 475.699 879.46 475.406C879.092 475.04 878.799 474.673 878.358 474.306C877.844 473.866 877.257 473.5 876.669 473.133C876.229 472.913 875.862 472.62 875.421 472.4C874.76 472.033 873.952 471.813 873.218 471.593C872.851 471.447 872.484 471.3 872.043 471.153C870.869 470.86 869.62 470.713 868.372 470.713C867.124 470.713 865.876 470.86 864.701 471.153C864.26 471.227 863.893 471.447 863.526 471.593C862.792 471.813 862.057 472.107 861.323 472.4C860.882 472.62 860.515 472.913 860.075 473.133C859.487 473.5 858.9 473.866 858.386 474.306C858.019 474.6 857.652 475.04 857.285 475.333C856.991 475.699 856.55 475.919 856.257 476.286H849.942C849.942 476.286 849.281 475.626 848.914 475.333C848.547 474.966 848.253 474.6 847.813 474.306C847.299 473.866 846.711 473.5 846.124 473.133C845.683 472.913 845.316 472.62 844.875 472.4C844.215 472.033 843.407 471.813 842.673 471.593C842.305 471.447 841.938 471.3 841.498 471.153C840.323 470.86 839.075 470.713 837.826 470.713C836.578 470.713 835.33 470.86 834.155 471.153C833.715 471.227 833.347 471.447 832.98 471.593C832.246 471.813 831.512 472.107 830.777 472.4C830.337 472.62 829.97 472.913 829.529 473.133C828.942 473.5 828.354 473.866 827.84 474.306C827.473 474.6 827.106 475.04 826.739 475.333C826.445 475.699 826.005 475.919 825.711 476.286H821.966C818.956 469.54 813.816 465.067 808.015 465.067C802.214 465.067 797.075 469.54 794.064 476.286H791.788V482.885H792.669V488.605H796.414V495.204H800.966V501.583V522.921H706.613L681.794 528.64V531.94H686.273V539.639H512.912V544.845H509.094V547.265H507.552V551.444H509.094V558.044H510.636V564.423H513.059V611.424H507.552V615.604H513.133V617.217H510.71V620.443H513.133V622.057H510.71V628.656H513.133V698.021H1291.97V628.656H1294.39V622.057H1291.97V620.443H1294.39V617.217H1291.97V615.604H1297.55V611.424H1291.97V564.423H1294.39L1294.47 564.496Z" fill="#F5851E"/>
</svg>
